<?xml version="1.0" encoding="UTF-8" standalone="no"?>
<!DOCTYPE svg PUBLIC "-//W3C//DTD SVG 1.1//EN" "http://www.w3.org/Graphics/SVG/1.1/DTD/svg11.dtd">
<svg xmlns="http://www.w3.org/2000/svg" version="1.1" viewBox="0.00 0.00 1552.00 946.00">
<path fill="#151616" d="
  M 121.93 13.20
  C 121.96 15.50 121.95 95.80 121.92 254.11
  C 121.92 263.62 122.33 270.70 123.16 275.34
  C 127.75 301.08 141.69 323.66 159.67 342.34
  C 175.63 358.93 193.40 372.53 212.99 383.15
  C 230.35 392.56 248.71 401.16 268.81 401.16
  C 288.50 401.16 330.04 401.16 393.43 401.16
  C 393.73 401.16 393.97 401.40 393.97 401.70
  L 393.97 501.75
  C 393.97 501.98 393.79 502.16 393.56 502.16
  C 314.29 502.15 271.53 502.14 265.26 502.12
  C 161.92 501.86 71.64 437.75 35.72 341.29
  C 29.37 324.24 24.93 305.35 22.40 284.62
  C 21.21 274.87 20.72 257.78 20.92 233.33
  C 20.98 226.32 20.99 152.85 20.94 12.92
  C 20.94 12.73 21.09 12.58 21.28 12.58
  L 121.30 12.58
  C 121.64 12.58 121.92 12.86 121.93 13.20
  Z"
/>
<path fill="#151616" d="
  M 550.11 257.41
  C 550.11 285.90 558.63 314.55 574.91 338.09
  C 597.75 371.11 630.98 392.46 670.73 399.32
  C 671.54 399.45 674.98 399.87 681.07 400.58
  C 685.03 401.04 688.50 401.24 691.47 401.17
  C 692.94 401.14 741.71 401.13 837.76 401.15
  C 837.96 401.15 838.13 401.32 838.13 401.53
  L 838.13 501.85
  C 838.13 502.02 837.99 502.16 837.82 502.16
  C 770.92 502.10 730.94 502.11 717.89 502.19
  C 694.22 502.33 677.33 501.83 667.20 500.69
  C 622.68 495.70 582.54 479.80 546.77 452.98
  C 485.48 407.03 449.12 334.53 449.12 257.41
  C 449.13 180.28 485.49 107.79 546.78 61.83
  C 582.54 35.02 622.69 19.12 667.21 14.13
  C 677.33 12.99 694.23 12.49 717.90 12.63
  C 730.95 12.71 770.93 12.72 837.83 12.67
  C 838.00 12.67 838.14 12.80 838.14 12.98
  L 838.13 113.30
  C 838.13 113.51 837.97 113.68 837.76 113.68
  C 741.71 113.69 692.95 113.68 691.47 113.65
  C 688.50 113.58 685.03 113.78 681.07 114.24
  C 674.99 114.95 671.54 115.37 670.73 115.50
  C 630.98 122.36 597.75 143.71 574.92 176.72
  C 558.64 200.26 550.11 228.92 550.11 257.41
  Z"
/>
<path fill="#f17e00" d="
  M 1014.17 335.70
  C 1055.28 244.72 1080.21 188.92 1089.23 168.60
  C 1096.27 152.73 1101.89 141.29 1106.09 134.26
  C 1113.76 121.42 1121.00 110.93 1127.79 102.79
  C 1146.96 79.84 1169.00 60.96 1193.93 46.15
  C 1200.93 41.99 1209.33 37.73 1219.13 33.36
  C 1242.05 23.15 1266.57 16.94 1290.42 14.12
  C 1299.45 13.05 1313.82 12.55 1333.54 12.63
  C 1345.64 12.69 1379.30 12.70 1434.51 12.66
  C 1434.76 12.66 1434.96 12.87 1434.96 13.11
  L 1434.96 113.27
  C 1434.96 113.52 1434.76 113.71 1434.52 113.71
  C 1377.53 113.62 1338.18 113.65 1316.47 113.79
  C 1305.57 113.87 1294.09 115.79 1282.02 119.57
  C 1266.12 124.55 1251.93 131.09 1239.45 139.20
  C 1219.68 152.04 1202.84 167.29 1190.23 187.50
  C 1188.38 190.48 1185.14 197.12 1180.53 207.43
  C 1154.84 264.86 1129.42 321.38 1104.28 377.01
  C 1063.17 467.98 1038.24 523.78 1029.22 544.11
  C 1022.18 559.97 1016.56 571.41 1012.36 578.44
  C 1004.69 591.28 997.45 601.77 990.66 609.91
  C 971.49 632.86 949.45 651.74 924.52 666.55
  C 917.52 670.71 909.12 674.97 899.32 679.34
  C 876.40 689.55 851.88 695.76 828.03 698.58
  C 819.00 699.65 804.63 700.15 784.91 700.07
  C 772.81 700.02 739.15 700.01 683.94 700.04
  C 683.69 700.04 683.49 699.84 683.49 699.59
  L 683.49 599.43
  C 683.49 599.19 683.69 598.99 683.93 598.99
  C 740.92 599.08 780.27 599.06 801.98 598.91
  C 812.88 598.84 824.36 596.91 836.43 593.13
  C 852.33 588.16 866.52 581.61 879.00 573.50
  C 898.77 560.66 915.61 545.41 928.22 525.20
  C 930.07 522.23 933.31 515.58 937.92 505.27
  C 963.61 447.85 989.03 391.32 1014.17 335.70
  Z"
/>
<path fill="#151616" d="
  M 700.00 810.35
  C 719.52 792.74 748.41 791.61 768.82 808.20
  C 799.45 833.10 791.95 881.73 755.71 896.80
  C 748.45 899.82 740.68 901.09 732.41 900.61
  C 720.44 899.92 709.64 895.33 700.02 886.84
  C 699.85 886.70 699.60 886.81 699.60 887.03
  L 699.60 900.40
  C 699.60 900.63 699.41 900.82 699.18 900.82
  L 683.91 900.82
  C 683.67 900.82 683.48 900.63 683.48 900.40
  L 683.48 760.89
  C 683.48 760.54 683.76 760.26 684.11 760.26
  L 699.30 760.26
  C 699.47 760.26 699.60 760.39 699.60 760.56
  L 699.60 810.17
  C 699.60 810.38 699.85 810.49 700.00 810.35
  Z
  M 771.84 848.58
  C 771.84 828.64 755.68 812.48 735.74 812.48
  C 715.80 812.48 699.64 828.64 699.64 848.58
  C 699.64 868.52 715.80 884.68 735.74 884.68
  C 755.68 884.68 771.84 868.52 771.84 848.58
  Z"
/>
<path fill="#151616" d="
  M 879.14 796.36
  L 896.55 796.36
  C 896.80 796.36 896.97 796.61 896.86 796.84
  L 834.04 936.71
  C 833.99 936.83 833.86 936.91 833.73 936.91
  L 816.30 936.91
  C 816.05 936.91 815.88 936.66 815.99 936.43
  L 832.12 900.52
  C 832.16 900.43 832.16 900.33 832.12 900.24
  L 786.17 796.84
  C 786.07 796.61 786.24 796.36 786.48 796.36
  L 803.90 796.36
  C 804.03 796.36 804.16 796.44 804.21 796.56
  L 841.00 879.38
  C 841.12 879.65 841.50 879.65 841.62 879.39
  L 878.83 796.56
  C 878.88 796.44 879.01 796.36 879.14 796.36
  Z"
/>
<path fill="#151616" d="
  M 1023.76 900.79
  C 1002.41 900.87 988.00 900.84 980.51 900.70
  C 960.39 900.34 942.57 887.42 934.53 869.25
  C 931.87 863.22 930.50 856.56 930.43 849.25
  C 930.41 846.95 930.40 829.41 930.41 796.63
  C 930.41 796.48 930.53 796.36 930.68 796.36
  L 938.90 796.36
  C 939.03 796.36 939.14 796.47 939.14 796.60
  C 939.18 802.02 939.18 817.93 939.14 844.33
  C 939.13 851.42 939.63 856.65 940.66 860.04
  C 945.25 875.20 955.95 886.22 971.01 890.54
  C 975.26 891.75 982.13 892.27 991.63 892.09
  C 994.71 892.04 1005.42 892.03 1023.76 892.08
  C 1023.96 892.08 1024.12 892.24 1024.12 892.44
  L 1024.12 900.43
  C 1024.12 900.63 1023.96 900.79 1023.76 900.79
  Z"
/>
<path fill="#151616" d="
  M 1088.99 892.04
  C 1109.06 892.04 1125.86 878.78 1131.10 859.69
  C 1132.12 855.98 1132.60 850.63 1132.53 843.63
  C 1132.44 834.77 1132.43 819.10 1132.50 796.63
  C 1132.50 796.49 1132.62 796.37 1132.77 796.37
  L 1140.91 796.37
  C 1141.08 796.37 1141.21 796.50 1141.21 796.66
  C 1141.22 830.60 1141.22 848.21 1141.20 849.50
  C 1141.05 861.83 1137.06 872.66 1129.24 881.97
  C 1118.98 894.19 1104.90 900.77 1088.99 900.77
  C 1073.08 900.77 1059.00 894.19 1048.74 881.96
  C 1040.92 872.65 1036.94 861.83 1036.79 849.49
  C 1036.77 848.21 1036.77 830.59 1036.78 796.65
  C 1036.78 796.49 1036.92 796.36 1037.08 796.36
  L 1045.22 796.37
  C 1045.37 796.37 1045.49 796.48 1045.49 796.63
  C 1045.56 819.10 1045.54 834.77 1045.46 843.63
  C 1045.39 850.63 1045.87 855.98 1046.88 859.69
  C 1052.12 878.78 1068.92 892.04 1088.99 892.04
  Z"
/>
<path fill="#151616" d="
  M 1306.64 848.58
  C 1306.64 868.04 1319.63 885.36 1338.34 890.50
  C 1342.69 891.69 1349.53 892.24 1358.85 892.14
  C 1369.88 892.01 1380.38 892.00 1390.36 892.11
  C 1390.53 892.11 1390.67 892.25 1390.67 892.42
  L 1390.67 900.43
  C 1390.67 900.63 1390.51 900.79 1390.32 900.79
  C 1370.97 900.86 1357.20 900.84 1349.01 900.71
  C 1320.29 900.27 1297.89 877.08 1297.89 848.58
  C 1297.89 820.09 1320.29 796.90 1349.02 796.46
  C 1357.21 796.33 1370.98 796.31 1390.32 796.38
  C 1390.52 796.38 1390.67 796.54 1390.67 796.74
  L 1390.67 804.75
  C 1390.67 804.92 1390.53 805.06 1390.36 805.06
  C 1380.38 805.17 1369.88 805.16 1358.85 805.03
  C 1349.53 804.93 1342.70 805.48 1338.34 806.67
  C 1319.63 811.81 1306.64 829.13 1306.64 848.58
  Z"
/>
<path fill="#151616" d="
  M 1219.56 796.40
  C 1235.47 796.40 1249.55 802.98 1259.81 815.21
  C 1267.63 824.52 1271.62 835.34 1271.77 847.68
  C 1271.79 848.96 1271.80 866.58 1271.78 900.52
  C 1271.78 900.68 1271.65 900.81 1271.48 900.81
  L 1263.34 900.81
  C 1263.19 900.81 1263.07 900.70 1263.07 900.55
  C 1263.00 878.08 1263.01 862.41 1263.10 853.55
  C 1263.17 846.55 1262.69 841.19 1261.67 837.48
  C 1256.44 818.39 1239.63 805.13 1219.56 805.13
  C 1199.49 805.13 1182.68 818.39 1177.45 837.48
  C 1176.43 841.19 1175.95 846.55 1176.02 853.55
  C 1176.11 862.41 1176.12 878.08 1176.05 900.56
  C 1176.05 900.70 1175.93 900.82 1175.78 900.82
  L 1167.64 900.82
  C 1167.48 900.82 1167.34 900.69 1167.34 900.53
  C 1167.33 866.58 1167.33 848.97 1167.35 847.68
  C 1167.50 835.35 1171.49 824.52 1179.30 815.21
  C 1189.57 802.98 1203.65 796.40 1219.56 796.40
  Z"
/>
<path fill="#151616" d="
  M 1515.18 848.58
  C 1515.18 877.47 1491.76 900.89 1462.87 900.89
  C 1433.98 900.89 1410.56 877.47 1410.56 848.58
  C 1410.56 819.69 1433.98 796.27 1462.87 796.27
  C 1491.76 796.27 1515.18 819.69 1515.18 848.58
  Z
  M 1506.38 848.59
  C 1506.38 824.56 1486.90 805.08 1462.87 805.08
  C 1438.84 805.08 1419.36 824.56 1419.36 848.59
  C 1419.36 872.62 1438.84 892.10 1462.87 892.10
  C 1486.90 892.10 1506.38 872.62 1506.38 848.59
  Z"
/>
<path fill="#151616" d="
  M 1532.63 805.15
  C 1532.63 809.98 1528.71 813.90 1523.88 813.90
  C 1519.05 813.90 1515.13 809.98 1515.13 805.15
  C 1515.13 800.32 1519.05 796.40 1523.88 796.40
  C 1528.71 796.40 1532.63 800.32 1532.63 805.15
  Z"
/>
</svg>
