<?xml version="1.0" encoding="UTF-8" standalone="no"?>
<!DOCTYPE svg PUBLIC "-//W3C//DTD SVG 1.1//EN" "http://www.w3.org/Graphics/SVG/1.1/DTD/svg11.dtd">
<svg xmlns="http://www.w3.org/2000/svg" version="1.1" viewBox="0.00 0.00 1646.00 322.00">
<path fill="#151616" d="
  M 268.04 281.14
  L 268.04 303.29
  C 268.04 303.60 267.78 303.85 267.47 303.85
  C 193.92 303.86 156.59 303.86 155.50 303.86
  C 153.39 303.87 149.23 303.62 143.01 303.12
  C 120.54 301.33 99.71 294.12 80.53 281.49
  C 67.71 273.05 55.78 261.80 44.74 247.74
  C 26.66 224.71 16.92 194.79 16.93 166.50
  C 16.94 161.77 16.94 114.40 16.93 24.39
  C 16.93 24.16 17.12 23.97 17.36 23.97
  L 39.74 23.97
  C 40.09 23.97 40.37 24.25 40.37 24.60
  C 40.40 105.77 40.39 149.83 40.34 156.76
  C 40.25 168.01 40.75 176.66 41.82 182.71
  C 47.65 215.52 65.87 243.99 94.01 262.01
  C 112.85 274.07 134.73 280.37 156.50 280.37
  C 196.71 280.36 233.66 280.38 267.33 280.43
  C 267.72 280.43 268.04 280.75 268.04 281.14
  Z"
/>
<path fill="#151616" d="
  M 441.88 280.39
  C 464.87 280.39 487.34 273.82 506.45 261.05
  C 530.46 245.01 546.53 222.54 554.65 193.63
  C 557.12 184.86 558.35 176.06 558.36 167.25
  C 558.41 88.08 558.40 40.49 558.33 24.48
  C 558.32 24.19 558.55 23.96 558.84 23.96
  L 581.45 23.96
  C 581.65 23.96 581.82 24.13 581.82 24.33
  C 581.80 105.86 581.81 148.08 581.84 151.01
  C 582.03 166.80 581.61 177.94 580.58 184.43
  C 577.09 206.60 569.70 226.80 556.39 244.74
  C 537.74 269.89 512.91 289.25 483.26 298.01
  C 470.10 301.89 456.30 303.84 441.88 303.84
  C 427.45 303.84 413.66 301.89 400.49 298.01
  C 370.84 289.25 346.01 269.89 327.36 244.74
  C 314.05 226.80 306.66 206.60 303.17 184.43
  C 302.15 177.94 301.73 166.80 301.91 151.01
  C 301.95 148.08 301.95 105.86 301.94 24.33
  C 301.94 24.12 302.10 23.96 302.31 23.96
  L 324.92 23.96
  C 325.20 23.96 325.43 24.19 325.43 24.48
  C 325.35 40.49 325.34 88.08 325.39 167.25
  C 325.40 176.06 326.64 184.86 329.10 193.63
  C 337.22 222.54 353.29 245.01 377.30 261.05
  C 396.42 273.82 418.88 280.39 441.88 280.39
  Z"
/>
<path fill="#151616" d="
  M 791.71 23.99
  C 806.14 23.99 819.93 25.93 833.10 29.82
  C 862.75 38.57 887.58 57.93 906.23 83.08
  C 919.54 101.02 926.93 121.22 930.43 143.39
  C 931.45 149.88 931.87 161.02 931.69 176.81
  C 931.65 179.74 931.65 221.96 931.67 303.49
  C 931.67 303.69 931.51 303.86 931.30 303.86
  L 908.69 303.86
  C 908.41 303.86 908.18 303.63 908.18 303.34
  C 908.26 287.33 908.26 239.74 908.21 160.57
  C 908.20 151.76 906.96 142.96 904.49 134.19
  C 896.37 105.28 880.30 82.81 856.29 66.77
  C 837.17 54.00 814.71 47.43 791.71 47.44
  C 768.72 47.44 746.26 54.01 727.14 66.78
  C 703.13 82.82 687.07 105.30 678.95 134.21
  C 676.48 142.98 675.24 151.77 675.24 160.59
  C 675.19 239.75 675.20 287.34 675.28 303.36
  C 675.28 303.64 675.05 303.88 674.77 303.88
  L 652.16 303.88
  C 651.95 303.88 651.79 303.71 651.79 303.51
  C 651.80 221.98 651.79 179.75 651.76 176.83
  C 651.57 161.03 651.99 149.89 653.02 143.41
  C 656.51 121.24 663.89 101.04 677.20 83.10
  C 695.85 57.94 720.68 38.58 750.33 29.82
  C 763.49 25.94 777.29 23.99 791.71 23.99
  Z"
/>
<path fill="#151616" d="
  M 1025.07 163.92
  C 1025.07 173.92 1026.02 183.52 1028.61 192.89
  C 1037.52 225.00 1055.90 249.12 1083.76 265.23
  C 1095.77 272.18 1109.39 276.85 1124.61 279.24
  C 1130.67 280.19 1143.28 280.60 1162.44 280.45
  C 1170.51 280.38 1199.59 280.37 1249.68 280.42
  C 1250.00 280.42 1250.26 280.68 1250.26 281.01
  L 1250.26 303.18
  C 1250.26 303.54 1249.97 303.83 1249.61 303.83
  C 1198.99 303.88 1162.71 303.87 1140.76 303.80
  C 1132.59 303.77 1124.26 303.06 1115.78 301.65
  C 1077.66 295.32 1045.71 272.08 1024.04 240.45
  C 1008.59 217.89 1001.64 190.50 1001.63 163.92
  C 1001.63 137.35 1008.58 109.95 1024.03 87.39
  C 1045.69 55.76 1077.64 32.52 1115.76 26.18
  C 1124.24 24.77 1132.56 24.05 1140.74 24.03
  C 1162.68 23.96 1198.97 23.94 1249.59 23.98
  C 1249.95 23.98 1250.24 24.27 1250.24 24.63
  L 1250.24 46.80
  C 1250.24 47.13 1249.98 47.39 1249.66 47.39
  C 1199.57 47.44 1170.49 47.44 1162.42 47.37
  C 1143.26 47.23 1130.65 47.63 1124.59 48.59
  C 1109.37 50.98 1095.76 55.66 1083.74 62.61
  C 1055.89 78.72 1037.51 102.84 1028.61 134.96
  C 1026.01 144.33 1025.07 153.92 1025.07 163.92
  Z"
/>
<path fill="#151616" d="
  M 1446.33 24.08
  C 1468.56 24.50 1489.86 29.37 1509.19 39.73
  C 1527.18 49.38 1542.32 62.79 1555.19 79.17
  C 1574.98 104.35 1584.25 134.44 1583.65 166.54
  C 1583.05 198.65 1572.65 228.36 1551.92 252.79
  C 1538.45 268.67 1522.81 281.51 1504.48 290.47
  C 1484.77 300.10 1463.31 304.16 1441.07 303.74
  C 1418.83 303.33 1397.53 298.46 1378.20 288.10
  C 1360.22 278.45 1345.08 265.04 1332.21 248.66
  C 1312.41 223.47 1303.14 193.39 1303.75 161.28
  C 1304.35 129.17 1314.74 99.46 1335.47 75.04
  C 1348.95 59.15 1364.58 46.32 1382.92 37.36
  C 1402.62 27.73 1424.09 23.66 1446.33 24.08
  Z
  M 1560.31 163.91
  C 1560.31 99.51 1508.10 47.30 1443.70 47.30
  C 1379.30 47.30 1327.09 99.51 1327.09 163.91
  C 1327.09 228.31 1379.30 280.52 1443.70 280.52
  C 1508.10 280.52 1560.31 228.31 1560.31 163.91
  Z"
/>
<path fill="#151616" d="
  M 1630.72 47.52
  C 1630.72 60.52 1620.19 71.05 1607.19 71.05
  C 1594.19 71.05 1583.66 60.52 1583.66 47.52
  C 1583.66 34.52 1594.19 23.99 1607.19 23.99
  C 1620.19 23.99 1630.72 34.52 1630.72 47.52
  Z"
/>
</svg>
